<svg xmlns="http://www.w3.org/2000/svg" xmlns:xlink="http://www.w3.org/1999/xlink" width="800" height="225" viewBox="0 0 800 225"><defs><clipPath id="b"><rect width="800" height="225"/></clipPath></defs><g id="a" clip-path="url(#b)"><rect width="800" height="225" fill="#fff"/><g transform="translate(700 198)"><line x2="50" transform="translate(0 4)" fill="none" stroke="#000" stroke-width="1"/><line x2="50" fill="none" stroke="#000" stroke-width="1"/></g><g transform="translate(700 148)"><line x2="50" transform="translate(0 4)" fill="none" stroke="#000" stroke-width="1"/><line x2="50" fill="none" stroke="#000" stroke-width="1"/></g><g transform="translate(700 98)"><line x2="50" transform="translate(0 4)" fill="none" stroke="#000" stroke-width="1"/><line x2="50" fill="none" stroke="#000" stroke-width="1"/></g><g transform="translate(50 200)"><line x2="650" fill="none" stroke="#000" stroke-width="1"/></g><g transform="translate(50 150)"><line x2="650" fill="none" stroke="#000" stroke-width="1"/></g><g transform="translate(50 100)"><line x2="650" fill="none" stroke="#000" stroke-width="1"/></g><text transform="translate(46 156)" font-size="20" font-family="CambriaMath, Cambria Math"><tspan x="-24.121" y="0">∣0⟩</tspan></text><text transform="translate(46 206)" font-size="20" font-family="CambriaMath, Cambria Math"><tspan x="-24.121" y="0">∣0⟩</tspan></text><text transform="translate(46 106)" font-size="20" font-family="CambriaMath, Cambria Math"><tspan x="-24.121" y="0">∣0⟩</tspan></text><text transform="translate(754 106)" font-size="20" font-family="CambriaMath, Cambria Math"><tspan x="0" y="0">1</tspan></text><text transform="translate(754 156)" font-size="20" font-family="CambriaMath, Cambria Math"><tspan x="0" y="0">1</tspan></text><text transform="translate(754 206)" font-size="20" font-family="CambriaMath, Cambria Math"><tspan x="0" y="0">0</tspan></text><text transform="translate(400 26)" font-size="20" font-family="CambriaMath, Cambria Math"><tspan x="-42.188" y="0">Repeat 2x</tspan></text><path d="M170,250v-9.5H629.5V250" transform="translate(0 -200)" fill="none" stroke="#000" stroke-width="1"/><g transform="translate(75 75)"><rect width="50" height="150" opacity="0.05"/></g><g transform="translate(80 130)"><rect width="40" height="40" fill="#fff" stroke="#000" stroke-width="1"/><text transform="translate(20 27)" font-size="20" font-family="CambriaMath, Cambria Math"><tspan x="-6.865" y="0">H</tspan></text></g><g transform="translate(80 80)"><rect width="40" height="40" fill="#fff" stroke="#000" stroke-width="1"/><text transform="translate(20 27)" font-size="20" font-family="CambriaMath, Cambria Math"><tspan x="-6.865" y="0">H</tspan></text></g><g transform="translate(80 180)"><rect width="40" height="40" fill="#fff" stroke="#000" stroke-width="1"/><text transform="translate(20 27)" font-size="20" font-family="CambriaMath, Cambria Math"><tspan x="-6.865" y="0">H</tspan></text></g><text transform="translate(100 66)" font-size="20" font-family="CambriaMath, Cambria Math"><tspan x="-14.985" y="0">Init</tspan></text><g transform="translate(175 75)"><rect width="150" height="150" opacity="0.05"/></g><g transform="translate(245 95)"><circle cx="5" cy="5" r="5"/></g><line y2="100" transform="translate(250 100)" fill="none" stroke="#000" stroke-width="1"/><g transform="translate(230 180)"><rect width="40" height="40" fill="#fff" stroke="#000" stroke-width="1"/><text transform="translate(20 27)" font-size="20" font-family="CambriaMath, Cambria Math"><tspan x="-5.376" y="0">Z</tspan></text></g><g transform="translate(180 180)"><rect width="40" height="40" fill="#fff" stroke="#000" stroke-width="1"/><text transform="translate(20 27)" font-size="20" font-family="CambriaMath, Cambria Math"><tspan x="-5.713" y="0">X</tspan></text></g><g transform="translate(280 180)"><rect width="40" height="40" fill="#fff" stroke="#000" stroke-width="1"/><text transform="translate(20 27)" font-size="20" font-family="CambriaMath, Cambria Math"><tspan x="-5.713" y="0">X</tspan></text></g><g transform="translate(245 145)"><circle cx="5" cy="5" r="5"/></g><text transform="translate(250 66)" font-size="20" font-family="CambriaMath, Cambria Math"><tspan x="-27.383" y="0">Oracle</tspan></text><g transform="translate(375 75)"><rect width="250" height="150" opacity="0.05"/></g><g transform="translate(495 95)"><circle cx="5" cy="5" r="5"/></g><line y2="100" transform="translate(500 100)" fill="none" stroke="#000" stroke-width="1"/><g transform="translate(480 180)"><rect width="40" height="40" fill="#fff" stroke="#000" stroke-width="1"/><text transform="translate(20 27)" font-size="20" font-family="CambriaMath, Cambria Math"><tspan x="-5.376" y="0">Z</tspan></text></g><g transform="translate(380 130)"><rect width="40" height="40" fill="#fff" stroke="#000" stroke-width="1"/><text transform="translate(20 27)" font-size="20" font-family="CambriaMath, Cambria Math"><tspan x="-6.865" y="0">H</tspan></text></g><g transform="translate(380 80)"><rect width="40" height="40" fill="#fff" stroke="#000" stroke-width="1"/><text transform="translate(20 27)" font-size="20" font-family="CambriaMath, Cambria Math"><tspan x="-6.865" y="0">H</tspan></text></g><g transform="translate(380 180)"><rect width="40" height="40" fill="#fff" stroke="#000" stroke-width="1"/><text transform="translate(20 27)" font-size="20" font-family="CambriaMath, Cambria Math"><tspan x="-6.865" y="0">H</tspan></text></g><g transform="translate(430 80)"><rect width="40" height="40" fill="#fff" stroke="#000" stroke-width="1"/><text transform="translate(20 27)" font-size="20" font-family="CambriaMath, Cambria Math"><tspan x="-5.713" y="0">X</tspan></text></g><g transform="translate(430 130)"><rect width="40" height="40" fill="#fff" stroke="#000" stroke-width="1"/><text transform="translate(20 27)" font-size="20" font-family="CambriaMath, Cambria Math"><tspan x="-5.713" y="0">X</tspan></text></g><g transform="translate(430 180)"><rect width="40" height="40" fill="#fff" stroke="#000" stroke-width="1"/><text transform="translate(20 27)" font-size="20" font-family="CambriaMath, Cambria Math"><tspan x="-5.713" y="0">X</tspan></text></g><g transform="translate(580 130)"><rect width="40" height="40" fill="#fff" stroke="#000" stroke-width="1"/><text transform="translate(20 27)" font-size="20" font-family="CambriaMath, Cambria Math"><tspan x="-6.865" y="0">H</tspan></text></g><g transform="translate(580 80)"><rect width="40" height="40" fill="#fff" stroke="#000" stroke-width="1"/><text transform="translate(20 27)" font-size="20" font-family="CambriaMath, Cambria Math"><tspan x="-6.865" y="0">H</tspan></text></g><g transform="translate(580 180)"><rect width="40" height="40" fill="#fff" stroke="#000" stroke-width="1"/><text transform="translate(20 27)" font-size="20" font-family="CambriaMath, Cambria Math"><tspan x="-6.865" y="0">H</tspan></text></g><g transform="translate(530 80)"><rect width="40" height="40" fill="#fff" stroke="#000" stroke-width="1"/><text transform="translate(20 27)" font-size="20" font-family="CambriaMath, Cambria Math"><tspan x="-5.713" y="0">X</tspan></text></g><g transform="translate(530 130)"><rect width="40" height="40" fill="#fff" stroke="#000" stroke-width="1"/><text transform="translate(20 27)" font-size="20" font-family="CambriaMath, Cambria Math"><tspan x="-5.713" y="0">X</tspan></text></g><g transform="translate(530 180)"><rect width="40" height="40" fill="#fff" stroke="#000" stroke-width="1"/><text transform="translate(20 27)" font-size="20" font-family="CambriaMath, Cambria Math"><tspan x="-5.713" y="0">X</tspan></text></g><text transform="translate(500 66)" font-size="20" font-family="CambriaMath, Cambria Math"><tspan x="-38.936" y="0">Diffusion</tspan></text><g transform="translate(495 145)"><circle cx="5" cy="5" r="5"/></g><g transform="translate(675 75)"><rect width="50" height="150" opacity="0.05"/></g><g transform="translate(680 80)"><rect width="40" height="40" fill="#fff" stroke="#000" stroke-width="1"/><g transform="translate(-265 -7)"><path d="M345,50h0c5.022-5,15-5,20,0" transform="translate(-70 -15)" fill="none" stroke="#000" stroke-width="1"/><line y1="19" x2="7" transform="translate(286 18)" fill="none" stroke="#000" stroke-width="1"/></g></g><g transform="translate(680 130)"><rect width="40" height="40" fill="#fff" stroke="#000" stroke-width="1"/><g transform="translate(-265 -7)"><path d="M345,50h0c5.022-5,15-5,20,0" transform="translate(-70 -15)" fill="none" stroke="#000" stroke-width="1"/><line y1="19" x2="7" transform="translate(286 18)" fill="none" stroke="#000" stroke-width="1"/></g></g><g transform="translate(680 180)"><rect width="40" height="40" fill="#fff" stroke="#000" stroke-width="1"/><g transform="translate(-265 -7)"><path d="M345,50h0c5.022-5,15-5,20,0" transform="translate(-70 -15)" fill="none" stroke="#000" stroke-width="1"/><line y1="19" x2="7" transform="translate(286 18)" fill="none" stroke="#000" stroke-width="1"/></g></g><text transform="translate(700 66)" font-size="20" font-family="CambriaMath, Cambria Math"><tspan x="-58.765" y="0">Measurement</tspan></text></g></svg>