<svg xmlns="http://www.w3.org/2000/svg" xmlns:xlink="http://www.w3.org/1999/xlink" width="500" height="150" viewBox="0 0 500 150">
  <defs>
    <clipPath id="clip-Quantum_Teleportation">
      <rect width="500" height="150"/>
    </clipPath>
  </defs>
  <g id="Quantum_Teleportation" data-name="Quantum Teleportation" clip-path="url(#clip-Quantum_Teleportation)">
    <rect width="500" height="150" fill="#fff"/>
    <line id="Line_1" data-name="Line 1" x2="250" transform="translate(50 25)" fill="none" stroke="#000" stroke-width="1"/>
    <line id="Line_2" data-name="Line 2" x2="250" transform="translate(50 75)" fill="none" stroke="#000" stroke-width="1"/>
    <line id="Line_3" data-name="Line 3" x2="400" transform="translate(50 125)" fill="none" stroke="#000" stroke-width="1"/>
    <line id="Line_9" data-name="Line 9" x2="50" transform="translate(300 73)" fill="none" stroke="#000" stroke-width="1"/>
    <line id="Line_10" data-name="Line 10" x2="50" transform="translate(300 77)" fill="none" stroke="#000" stroke-width="1"/>
    <g id="Control" transform="translate(345 70)">
      <g id="Ellipse_1" data-name="Ellipse 1" stroke="#000" stroke-width="1">
        <circle cx="5" cy="5" r="5" stroke="none"/>
        <circle cx="5" cy="5" r="4.5" fill="none"/>
      </g>
    </g>
    <line id="Line_11" data-name="Line 11" x2="100" transform="translate(300 23)" fill="none" stroke="#000" stroke-width="1"/>
    <line id="Line_12" data-name="Line 12" x2="100" transform="translate(300 27)" fill="none" stroke="#000" stroke-width="1"/>
    <line id="Line_13" data-name="Line 13" y2="50" transform="translate(352 75)" fill="none" stroke="#000" stroke-width="1"/>
    <line id="Line_14" data-name="Line 14" y2="50" transform="translate(348 75)" fill="none" stroke="#000" stroke-width="1"/>
    <line id="Line_15" data-name="Line 15" y2="100" transform="translate(402 25)" fill="none" stroke="#000" stroke-width="1"/>
    <line id="Line_16" data-name="Line 16" y2="100" transform="translate(398 25)" fill="none" stroke="#000" stroke-width="1"/>
    <g id="Control-2" data-name="Control" transform="translate(395 20)">
      <g id="Ellipse_1-2" data-name="Ellipse 1" stroke="#000" stroke-width="1">
        <circle cx="5" cy="5" r="5" stroke="none"/>
        <circle cx="5" cy="5" r="4.5" fill="none"/>
      </g>
    </g>
    <g id="Control-3" data-name="Control" transform="translate(195 20)">
      <g id="Ellipse_1-3" data-name="Ellipse 1" stroke="#000" stroke-width="1">
        <circle cx="5" cy="5" r="5" stroke="none"/>
        <circle cx="5" cy="5" r="4.5" fill="none"/>
      </g>
    </g>
    <g id="X-target" transform="translate(190 65)">
      <g id="Ellipse_2" data-name="Ellipse 2" fill="#fff" stroke="#000" stroke-width="1">
        <circle cx="10" cy="10" r="10" stroke="none"/>
        <circle cx="10" cy="10" r="9.5" fill="none"/>
      </g>
      <line id="Line_4" data-name="Line 4" y1="18" transform="translate(10 1)" fill="none" stroke="#000" stroke-width="1"/>
      <line id="Line_5" data-name="Line 5" x1="18" transform="translate(1 10)" fill="none" stroke="#000" stroke-width="1"/>
    </g>
    <line id="Line_6" data-name="Line 6" y2="50" transform="translate(200 25)" fill="none" stroke="#000" stroke-width="1"/>
    <line id="Line_7" data-name="Line 7" y2="50" transform="translate(150 75)" fill="none" stroke="#000" stroke-width="1"/>
    <g id="X-target-2" data-name="X-target" transform="translate(140 65)">
      <g id="Ellipse_2-2" data-name="Ellipse 2" fill="#fff" stroke="#000" stroke-width="1">
        <circle cx="10" cy="10" r="10" stroke="none"/>
        <circle cx="10" cy="10" r="9.5" fill="none"/>
      </g>
      <line id="Line_4-2" data-name="Line 4" y1="18" transform="translate(10 1)" fill="none" stroke="#000" stroke-width="1"/>
      <line id="Line_5-2" data-name="Line 5" x1="18" transform="translate(1 10)" fill="none" stroke="#000" stroke-width="1"/>
    </g>
    <g id="Hadamard" transform="translate(80 105)">
      <g id="Gate_border" data-name="Gate border">
        <g id="Rectangle_1" data-name="Rectangle 1" fill="#fff" stroke="#000" stroke-width="1">
          <rect width="40" height="40" stroke="none"/>
          <rect x="0.5" y="0.5" width="39" height="39" fill="none"/>
        </g>
      </g>
      <text id="H" transform="translate(20 27)" font-size="20" font-family="CambriaMath, Cambria Math"><tspan x="-6.865" y="0">H</tspan></text>
    </g>
    <g id="Measure" transform="translate(280 5)">
      <g id="Group_8" data-name="Group 8" transform="translate(-50 -35)">
        <g id="Gate_border-2" data-name="Gate border" transform="translate(50 35)">
          <g id="Rectangle_1-2" data-name="Rectangle 1" fill="#fff" stroke="#000" stroke-width="1">
            <rect width="40" height="40" stroke="none"/>
            <rect x="0.5" y="0.5" width="39" height="39" fill="none"/>
          </g>
        </g>
      </g>
      <g id="Group_11" data-name="Group 11" transform="translate(-265 -7)">
        <path id="Path_1" data-name="Path 1" d="M345,50h0c5.022-5,15-5,20,0" transform="translate(-70 -15)" fill="none" stroke="#000" stroke-width="1"/>
        <line id="Line_8" data-name="Line 8" y1="19" x2="7" transform="translate(286 18)" fill="none" stroke="#000" stroke-width="1"/>
      </g>
    </g>
    <g id="Measure-2" data-name="Measure" transform="translate(280 55)">
      <g id="Group_8-2" data-name="Group 8" transform="translate(-50 -35)">
        <g id="Gate_border-3" data-name="Gate border" transform="translate(50 35)">
          <g id="Rectangle_1-3" data-name="Rectangle 1" fill="#fff" stroke="#000" stroke-width="1">
            <rect width="40" height="40" stroke="none"/>
            <rect x="0.5" y="0.5" width="39" height="39" fill="none"/>
          </g>
        </g>
      </g>
      <g id="Group_11-2" data-name="Group 11" transform="translate(-265 -7)">
        <path id="Path_1-2" data-name="Path 1" d="M345,50h0c5.022-5,15-5,20,0" transform="translate(-70 -15)" fill="none" stroke="#000" stroke-width="1"/>
        <line id="Line_8-2" data-name="Line 8" y1="19" x2="7" transform="translate(286 18)" fill="none" stroke="#000" stroke-width="1"/>
      </g>
    </g>
    <g id="Hadamard-2" data-name="Hadamard" transform="translate(330 105)">
      <g id="Gate_border-4" data-name="Gate border">
        <g id="Rectangle_1-4" data-name="Rectangle 1" fill="#fff" stroke="#000" stroke-width="1">
          <rect width="40" height="40" stroke="none"/>
          <rect x="0.5" y="0.5" width="39" height="39" fill="none"/>
        </g>
      </g>
      <text id="X" transform="translate(20 27)" font-size="20" font-family="CambriaMath, Cambria Math"><tspan x="-5.713" y="0">X</tspan></text>
    </g>
    <g id="Hadamard-3" data-name="Hadamard" transform="translate(380 105)">
      <g id="Gate_border-5" data-name="Gate border">
        <g id="Rectangle_1-5" data-name="Rectangle 1" fill="#fff" stroke="#000" stroke-width="1">
          <rect width="40" height="40" stroke="none"/>
          <rect x="0.5" y="0.5" width="39" height="39" fill="none"/>
        </g>
      </g>
      <text id="Z" transform="translate(20 27)" font-size="20" font-family="CambriaMath, Cambria Math"><tspan x="-5.376" y="0">Z</tspan></text>
    </g>
    <text id="_0_" data-name="∣0⟩" transform="translate(46 81)" font-size="20" font-family="CambriaMath, Cambria Math"><tspan x="-24.121" y="0">∣0⟩</tspan></text>
    <text id="_0_2" data-name="∣0⟩" transform="translate(46 131)" font-size="20" font-family="CambriaMath, Cambria Math"><tspan x="-24.121" y="0">∣0⟩</tspan></text>
    <text id="_φ_" data-name="∣φ⟩" transform="translate(481 131)" font-size="20" font-family="CambriaMath, Cambria Math"><tspan x="-27.285" y="0">∣φ⟩</tspan></text>
    <text id="_φ_2" data-name="∣φ⟩" transform="translate(46 31)" font-size="20" font-family="CambriaMath, Cambria Math"><tspan x="-27.285" y="0">∣φ⟩</tspan></text>
    <g id="Hadamard-4" data-name="Hadamard" transform="translate(230 5)">
      <g id="Gate_border-6" data-name="Gate border">
        <g id="Rectangle_1-6" data-name="Rectangle 1" fill="#fff" stroke="#000" stroke-width="1">
          <rect width="40" height="40" stroke="none"/>
          <rect x="0.5" y="0.5" width="39" height="39" fill="none"/>
        </g>
      </g>
      <text id="H-2" data-name="H" transform="translate(20 27)" font-size="20" font-family="CambriaMath, Cambria Math"><tspan x="-6.865" y="0">H</tspan></text>
    </g>
    <g id="Control-4" data-name="Control" transform="translate(145 120)">
      <g id="Ellipse_1-4" data-name="Ellipse 1" stroke="#000" stroke-width="1">
        <circle cx="5" cy="5" r="5" stroke="none"/>
        <circle cx="5" cy="5" r="4.5" fill="none"/>
      </g>
    </g>
  </g>
</svg>
