<svg xmlns="http://www.w3.org/2000/svg" xmlns:xlink="http://www.w3.org/1999/xlink" width="500" height="150" viewBox="0 0 500 150"><defs><clipPath id="b"><rect width="500" height="150"/></clipPath></defs><g id="a" clip-path="url(#b)"><rect width="500" height="150" fill="#fff"/><g transform="translate(300 73)"><line x2="50" transform="translate(0 4)" fill="none" stroke="#000" stroke-width="1"/><line x2="50" fill="none" stroke="#000" stroke-width="1"/></g><g transform="translate(300 23)"><line x2="100" transform="translate(0 4)" fill="none" stroke="#000" stroke-width="1"/><line x2="100" fill="none" stroke="#000" stroke-width="1"/></g><g transform="translate(50 125)"><line x2="400" fill="none" stroke="#000" stroke-width="1"/></g><g transform="translate(50 75)"><line x2="250" fill="none" stroke="#000" stroke-width="1"/></g><g transform="translate(50 25)"><line x2="250" fill="none" stroke="#000" stroke-width="1"/></g><text transform="translate(46 81)" font-size="20" font-family="CambriaMath, Cambria Math"><tspan x="-24.121" y="0">∣0⟩</tspan></text><text transform="translate(46 131)" font-size="20" font-family="CambriaMath, Cambria Math"><tspan x="-24.121" y="0">∣0⟩</tspan></text><text transform="translate(481 131)" font-size="20" font-family="CambriaMath, Cambria Math"><tspan x="-27.285" y="0">∣φ⟩</tspan></text><text transform="translate(46 31)" font-size="20" font-family="CambriaMath, Cambria Math"><tspan x="-27.285" y="0">∣φ⟩</tspan></text><g transform="translate(398 25)"><line y2="100" transform="translate(4)" fill="none" stroke="#000" stroke-width="1"/><line y2="100" fill="none" stroke="#000" stroke-width="1"/></g><g transform="translate(395 20)"><circle cx="5" cy="5" r="5"/></g><g transform="translate(380 105)"><rect width="40" height="40" fill="#fff" stroke="#000" stroke-width="1"/><text transform="translate(20 27)" font-size="20" font-family="CambriaMath, Cambria Math"><tspan x="-5.376" y="0">Z</tspan></text></g><g transform="translate(345 70)"><circle cx="5" cy="5" r="5"/></g><g transform="translate(348 75)"><line y2="50" transform="translate(4)" fill="none" stroke="#000" stroke-width="1"/><line y2="50" fill="none" stroke="#000" stroke-width="1"/></g><g transform="translate(330 105)"><rect width="40" height="40" fill="#fff" stroke="#000" stroke-width="1"/><text transform="translate(20 27)" font-size="20" font-family="CambriaMath, Cambria Math"><tspan x="-5.713" y="0">X</tspan></text></g><g transform="translate(280 5)"><rect width="40" height="40" fill="#fff" stroke="#000" stroke-width="1"/><g transform="translate(-265 -7)"><path d="M345,50h0c5.022-5,15-5,20,0" transform="translate(-70 -15)" fill="none" stroke="#000" stroke-width="1"/><line y1="19" x2="7" transform="translate(286 18)" fill="none" stroke="#000" stroke-width="1"/></g></g><g transform="translate(280 55)"><rect width="40" height="40" fill="#fff" stroke="#000" stroke-width="1"/><g transform="translate(-265 -7)"><path d="M345,50h0c5.022-5,15-5,20,0" transform="translate(-70 -15)" fill="none" stroke="#000" stroke-width="1"/><line y1="19" x2="7" transform="translate(286 18)" fill="none" stroke="#000" stroke-width="1"/></g></g><g transform="translate(230 5)"><rect width="40" height="40" fill="#fff" stroke="#000" stroke-width="1"/><text transform="translate(20 27)" font-size="20" font-family="CambriaMath, Cambria Math"><tspan x="-6.865" y="0">H</tspan></text></g><g transform="translate(50)"><g transform="translate(95 120)"><circle cx="5" cy="5" r="5"/></g><g transform="translate(90 65)"><circle cx="10" cy="10" r="10" fill="#fff" stroke="#000" stroke-width="1"/><line y1="20" transform="translate(10)" fill="none" stroke="#000" stroke-width="1"/><line x1="20" transform="translate(0 10)" fill="none" stroke="#000" stroke-width="1"/></g><g transform="translate(100 75)"><line y2="50" fill="none" stroke="#000" stroke-width="1"/></g></g><g transform="translate(100 -50)"><g transform="translate(95 70)"><circle cx="5" cy="5" r="5"/></g><g transform="translate(90 115)"><circle cx="10" cy="10" r="10" fill="#fff" stroke="#000" stroke-width="1"/><line y1="20" transform="translate(10)" fill="none" stroke="#000" stroke-width="1"/><line x1="20" transform="translate(0 10)" fill="none" stroke="#000" stroke-width="1"/></g><g transform="translate(100 75)"><line y2="50" fill="none" stroke="#000" stroke-width="1"/></g></g><g transform="translate(80 105)"><rect width="40" height="40" fill="#fff" stroke="#000" stroke-width="1"/><text transform="translate(20 27)" font-size="20" font-family="CambriaMath, Cambria Math"><tspan x="-6.865" y="0">H</tspan></text></g></g></svg>