<svg xmlns="http://www.w3.org/2000/svg" xmlns:xlink="http://www.w3.org/1999/xlink" width="700" height="225" viewBox="0 0 700 225"><defs><clipPath id="b"><rect width="700" height="225"/></clipPath></defs><g id="a" clip-path="url(#b)"><rect width="700" height="225" fill="#fff"/><g transform="translate(50 200)"><line x2="550" fill="none" stroke="#000" stroke-width="1"/></g><g transform="translate(50 150)"><line x2="550" fill="none" stroke="#000" stroke-width="1"/></g><g transform="translate(50 100)"><line x2="550" fill="none" stroke="#000" stroke-width="1"/></g><g transform="translate(50 50)"><line x2="550" fill="none" stroke="#000" stroke-width="1"/></g><g transform="translate(50)"><g transform="translate(225 25)"><rect width="250" height="200" opacity="0.05"/></g><text transform="translate(350 16)" font-size="20" font-family="CambriaMath, Cambria Math"><tspan x="-44.634" y="0">Full Adder</tspan></text><text transform="translate(480 46)" font-size="15" font-family="CambriaMath, Cambria Math"><tspan x="0" y="0">A</tspan></text><text transform="translate(480 96)" font-size="15" font-family="CambriaMath, Cambria Math"><tspan x="0" y="0">B</tspan></text><text transform="translate(480 146)" font-size="15" font-family="CambriaMath, Cambria Math"><tspan x="0" y="0">Sum</tspan></text><text transform="translate(480 196)" font-size="15" font-family="CambriaMath, Cambria Math"><tspan x="0" y="0">CarryOut</tspan></text><text transform="translate(220 46)" font-size="15" font-family="CambriaMath, Cambria Math"><tspan x="-9.346" y="0">A</tspan></text><text transform="translate(220 96)" font-size="15" font-family="CambriaMath, Cambria Math"><tspan x="-9.17" y="0">B</tspan></text><text transform="translate(220 146)" font-size="15" font-family="CambriaMath, Cambria Math"><tspan x="-48.962" y="0">CarryIn</tspan></text><g transform="translate(350 -25)"><g transform="translate(95 70)"><circle cx="5" cy="5" r="5"/></g><g transform="translate(90 115)"><circle cx="10" cy="10" r="10" fill="#fff" stroke="#000" stroke-width="1"/><line y1="20" transform="translate(10)" fill="none" stroke="#000" stroke-width="1"/><line x1="20" transform="translate(0 10)" fill="none" stroke="#000" stroke-width="1"/></g><g transform="translate(100 75)"><line y2="50" fill="none" stroke="#000" stroke-width="1"/></g></g><g transform="translate(300 25)"><g transform="translate(95 70)"><circle cx="5" cy="5" r="5"/></g><g transform="translate(90 115)"><circle cx="10" cy="10" r="10" fill="#fff" stroke="#000" stroke-width="1"/><line y1="20" transform="translate(10)" fill="none" stroke="#000" stroke-width="1"/><line x1="20" transform="translate(0 10)" fill="none" stroke="#000" stroke-width="1"/></g><g transform="translate(100 75)"><line y2="50" fill="none" stroke="#000" stroke-width="1"/></g></g><g transform="translate(250 25)"><g transform="translate(95 70)"><circle cx="5" cy="5" r="5"/></g><g transform="translate(90 165)"><circle cx="10" cy="10" r="10" fill="#fff" stroke="#000" stroke-width="1"/><line y1="20" transform="translate(10)" fill="none" stroke="#000" stroke-width="1"/><line x1="20" transform="translate(0 10)" fill="none" stroke="#000" stroke-width="1"/></g><g transform="translate(100 75)"><line y2="100" fill="none" stroke="#000" stroke-width="1"/></g><g transform="translate(95 120)"><circle cx="5" cy="5" r="5"/></g></g><g transform="translate(200 -25)"><g transform="translate(95 70)"><circle cx="5" cy="5" r="5"/></g><g transform="translate(90 115)"><circle cx="10" cy="10" r="10" fill="#fff" stroke="#000" stroke-width="1"/><line y1="20" transform="translate(10)" fill="none" stroke="#000" stroke-width="1"/><line x1="20" transform="translate(0 10)" fill="none" stroke="#000" stroke-width="1"/></g><g transform="translate(100 75)"><line y2="50" fill="none" stroke="#000" stroke-width="1"/></g></g><g transform="translate(150 25)"><g transform="translate(95 20)"><circle cx="5" cy="5" r="5"/></g><g transform="translate(90 165)"><circle cx="10" cy="10" r="10" fill="#fff" stroke="#000" stroke-width="1"/><line y1="20" transform="translate(10)" fill="none" stroke="#000" stroke-width="1"/><line x1="20" transform="translate(0 10)" fill="none" stroke="#000" stroke-width="1"/></g><g transform="translate(100 25)"><line y2="150" fill="none" stroke="#000" stroke-width="1"/></g><g transform="translate(95 70)"><circle cx="5" cy="5" r="5"/></g></g></g><g transform="translate(75 25)"><rect width="100" height="150" opacity="0.05"/></g><g transform="translate(50 -25)"><g transform="translate(95 70)"><circle cx="5" cy="5" r="5"/></g><g transform="translate(90 115)"><circle cx="10" cy="10" r="10" fill="#fff" stroke="#000" stroke-width="1"/><line y1="20" transform="translate(10)" fill="none" stroke="#000" stroke-width="1"/><line x1="20" transform="translate(0 10)" fill="none" stroke="#000" stroke-width="1"/></g><g transform="translate(100 75)"><line y2="50" fill="none" stroke="#000" stroke-width="1"/></g></g><g transform="translate(80 30)"><rect width="40" height="40" fill="#fff" stroke="#000" stroke-width="1"/><text transform="translate(20 27)" font-size="20" font-family="CambriaMath, Cambria Math"><tspan x="-6.865" y="0">H</tspan></text></g><text transform="translate(125 16)" font-size="20" font-family="CambriaMath, Cambria Math"><tspan x="-58.887" y="0">Prepare input</tspan></text><text transform="translate(46 106)" font-size="20" font-family="CambriaMath, Cambria Math"><tspan x="-24.121" y="0">∣0⟩</tspan></text><text transform="translate(46 156)" font-size="20" font-family="CambriaMath, Cambria Math"><tspan x="-24.121" y="0">∣0⟩</tspan></text><text transform="translate(46 56)" font-size="20" font-family="CambriaMath, Cambria Math"><tspan x="-24.121" y="0">∣0⟩</tspan></text><text transform="translate(46 206)" font-size="20" font-family="CambriaMath, Cambria Math"><tspan x="-24.121" y="0">∣0⟩</tspan></text><text transform="translate(604 156)" font-size="20" font-family="CambriaMath, Cambria Math"><tspan x="0" y="0">∣0⟩</tspan></text><g transform="translate(-266 -471)"><text transform="translate(870 663)" font-size="20" font-family="CambriaMath, Cambria Math"><tspan x="0" y="0">∣0⟩ + ∣1⟩</tspan></text><line x2="72" transform="translate(871 671)" fill="none" stroke="#000" stroke-width="1"/><text transform="translate(906 693)" font-size="20" font-family="CambriaMath, Cambria Math"><tspan x="-12.104" y="0">√2</tspan></text></g></g></svg>