<svg xmlns="http://www.w3.org/2000/svg" xmlns:xlink="http://www.w3.org/1999/xlink" width="700" height="150" viewBox="0 0 700 150"><defs><clipPath id="b"><rect width="700" height="150"/></clipPath></defs><g id="a" clip-path="url(#b)"><rect width="700" height="150" fill="#fff"/><g transform="translate(0 125)"><line x2="700" fill="none" stroke="#000" stroke-width="1"/></g><g transform="translate(0 75)"><line x2="700" fill="none" stroke="#000" stroke-width="1"/></g><g transform="translate(0 25)"><line x2="700" fill="none" stroke="#000" stroke-width="1"/></g><g transform="translate(30 105)"><rect width="40" height="40" fill="#fff" stroke="#000" stroke-width="1"/><text transform="translate(20 27)" font-size="20" font-family="CambriaMath, Cambria Math"><tspan x="-6.865" y="0">H</tspan></text></g><g transform="translate(95 70)"><circle cx="5" cy="5" r="5"/></g><g transform="translate(90 115)"><circle cx="10" cy="10" r="10" fill="#fff" stroke="#000" stroke-width="1"/><line y1="20" transform="translate(10)" fill="none" stroke="#000" stroke-width="1"/><line x1="20" transform="translate(0 10)" fill="none" stroke="#000" stroke-width="1"/></g><g transform="translate(100 75)"><line y2="50" fill="none" stroke="#000" stroke-width="1"/></g><g transform="translate(130 105)"><rect width="40" height="40" fill="#fff" stroke="#000" stroke-width="1"/><text transform="translate(20 27)" font-size="20" font-family="CambriaMath, Cambria Math"><tspan x="-8.941" y="0">T</tspan><tspan y="0" font-size="11.666" baseline-shift="6.666000209254424">†</tspan></text></g><g transform="translate(195 20)"><circle cx="5" cy="5" r="5"/></g><g transform="translate(190 115)"><circle cx="10" cy="10" r="10" fill="#fff" stroke="#000" stroke-width="1"/><line y1="20" transform="translate(10)" fill="none" stroke="#000" stroke-width="1"/><line x1="20" transform="translate(0 10)" fill="none" stroke="#000" stroke-width="1"/></g><g transform="translate(200 25)"><line y2="100" fill="none" stroke="#000" stroke-width="1"/></g><g transform="translate(230 105)"><rect width="40" height="40" fill="#fff" stroke="#000" stroke-width="1"/><text transform="translate(20 27)" font-size="20" font-family="CambriaMath, Cambria Math"><tspan x="-5.928" y="0">T</tspan></text></g><g transform="translate(295 70)"><circle cx="5" cy="5" r="5"/></g><g transform="translate(290 115)"><circle cx="10" cy="10" r="10" fill="#fff" stroke="#000" stroke-width="1"/><line y1="20" transform="translate(10)" fill="none" stroke="#000" stroke-width="1"/><line x1="20" transform="translate(0 10)" fill="none" stroke="#000" stroke-width="1"/></g><g transform="translate(300 75)"><line y2="50" fill="none" stroke="#000" stroke-width="1"/></g><g transform="translate(330 105)"><rect width="40" height="40" fill="#fff" stroke="#000" stroke-width="1"/><text transform="translate(20 27)" font-size="20" font-family="CambriaMath, Cambria Math"><tspan x="-8.941" y="0">T</tspan><tspan y="0" font-size="11.666" baseline-shift="6.666000209254424">†</tspan></text></g><g transform="translate(395 20)"><circle cx="5" cy="5" r="5"/></g><g transform="translate(390 115)"><circle cx="10" cy="10" r="10" fill="#fff" stroke="#000" stroke-width="1"/><line y1="20" transform="translate(10)" fill="none" stroke="#000" stroke-width="1"/><line x1="20" transform="translate(0 10)" fill="none" stroke="#000" stroke-width="1"/></g><g transform="translate(400 25)"><line y2="100" fill="none" stroke="#000" stroke-width="1"/></g><g transform="translate(430 105)"><rect width="40" height="40" fill="#fff" stroke="#000" stroke-width="1"/><text transform="translate(20 27)" font-size="20" font-family="CambriaMath, Cambria Math"><tspan x="-5.928" y="0">T</tspan></text></g><g transform="translate(430 55)"><rect width="40" height="40" fill="#fff" stroke="#000" stroke-width="1"/><text transform="translate(20 27)" font-size="20" font-family="CambriaMath, Cambria Math"><tspan x="-8.941" y="0">T</tspan><tspan y="0" font-size="11.666" baseline-shift="6.666000209254424">†</tspan></text></g><g transform="translate(480 105)"><rect width="40" height="40" fill="#fff" stroke="#000" stroke-width="1"/><text transform="translate(20 27)" font-size="20" font-family="CambriaMath, Cambria Math"><tspan x="-6.865" y="0">H</tspan></text></g><g transform="translate(495 20)"><circle cx="5" cy="5" r="5"/></g><g transform="translate(490 65)"><circle cx="10" cy="10" r="10" fill="#fff" stroke="#000" stroke-width="1"/><line y1="20" transform="translate(10)" fill="none" stroke="#000" stroke-width="1"/><line x1="20" transform="translate(0 10)" fill="none" stroke="#000" stroke-width="1"/></g><g transform="translate(500 25)"><line y2="50" fill="none" stroke="#000" stroke-width="1"/></g><g transform="translate(530 55)"><rect width="40" height="40" fill="#fff" stroke="#000" stroke-width="1"/><text transform="translate(20 27)" font-size="20" font-family="CambriaMath, Cambria Math"><tspan x="-8.941" y="0">T</tspan><tspan y="0" font-size="11.666" baseline-shift="6.666000209254424">†</tspan></text></g><g transform="translate(595 20)"><circle cx="5" cy="5" r="5"/></g><g transform="translate(590 65)"><circle cx="10" cy="10" r="10" fill="#fff" stroke="#000" stroke-width="1"/><line y1="20" transform="translate(10)" fill="none" stroke="#000" stroke-width="1"/><line x1="20" transform="translate(0 10)" fill="none" stroke="#000" stroke-width="1"/></g><g transform="translate(600 25)"><line y2="50" fill="none" stroke="#000" stroke-width="1"/></g><g transform="translate(630 55)"><rect width="40" height="40" fill="#fff" stroke="#000" stroke-width="1"/><text transform="translate(20 27)" font-size="20" font-family="CambriaMath, Cambria Math"><tspan x="-4.961" y="0">S</tspan></text></g><g transform="translate(630 5)"><rect width="40" height="40" fill="#fff" stroke="#000" stroke-width="1"/><text transform="translate(20 27)" font-size="20" font-family="CambriaMath, Cambria Math"><tspan x="-5.928" y="0">T</tspan></text></g></g></svg>